<?xml version="1.0" encoding="UTF-8" standalone="no"?>
<svg
   xmlns:dc="http://purl.org/dc/elements/1.1/"
   xmlns:cc="http://creativecommons.org/ns#"
   xmlns:rdf="http://www.w3.org/1999/02/22-rdf-syntax-ns#"
   xmlns:svg="http://www.w3.org/2000/svg"
   xmlns="http://www.w3.org/2000/svg"
   xmlns:sodipodi="http://sodipodi.sourceforge.net/DTD/sodipodi-0.dtd"
   xmlns:inkscape="http://www.inkscape.org/namespaces/inkscape"
   version="1.1"
   id="svg2"
   xml:space="preserve"
   width="258.66666"
   height="258.66666"
   viewBox="0 0 258.66666 258.66666"
   sodipodi:docname="Hama.eps"><metadata
     id="metadata8"><rdf:RDF><cc:Work
         rdf:about=""><dc:format>image/svg+xml</dc:format><dc:type
           rdf:resource="http://purl.org/dc/dcmitype/StillImage" /></cc:Work></rdf:RDF></metadata><defs
     id="defs6" /><sodipodi:namedview
     pagecolor="#ffffff"
     bordercolor="#666666"
     borderopacity="1"
     objecttolerance="10"
     gridtolerance="10"
     guidetolerance="10"
     inkscape:pageopacity="0"
     inkscape:pageshadow="2"
     inkscape:window-width="640"
     inkscape:window-height="480"
     id="namedview4" /><g
     id="g10"
     inkscape:groupmode="layer"
     inkscape:label="ink_ext_XXXXXX"
     transform="matrix(1.3333333,0,0,-1.3333333,0,258.66667)"><g
       id="g12"
       transform="scale(0.1)"><path
         d="M 2.59766,1933.23 H 1930.16 V 5.66797 H 2.59766 V 1933.23"
         style="fill:#ffffff;fill-opacity:1;fill-rule:evenodd;stroke:none"
         id="path14" /><path
         d="m 1828.77,827.863 h -8.05 v -22.828 h -10.18 v 57.863 h 20.25 c 7.17,0 12.43,-0.699 15.8,-2.093 5.96,-2.489 8.96,-7.364 8.96,-14.621 0,-5.176 -1.91,-8.985 -5.68,-11.426 -2.01,-1.309 -4.82,-2.227 -8.38,-2.805 4.53,-0.715 7.85,-2.613 9.96,-5.672 2.11,-3.066 3.18,-6.039 3.18,-8.968 v -4.231 c 0,-1.789 -0.19,-5.781 0.65,-7.332 l 0.33,-0.715 c -3.18,0 -6.35,0 -9.53,0 -0.5,1.899 -0.51,4.961 -0.51,7.68 0,6.707 -1.83,11.129 -5.44,13.285 -2.17,1.238 -5.96,1.863 -11.36,1.863 z m -29,38.043 c -8.8,-8.843 -13.2,-19.554 -13.2,-32.082 0,-12.64 4.37,-23.406 13.12,-32.304 8.81,-8.895 19.51,-13.348 32.09,-13.348 12.6,0 23.29,4.453 32.1,13.348 8.8,8.898 13.21,19.664 13.21,32.304 0,12.528 -4.41,23.239 -13.21,32.082 -8.86,8.907 -19.57,13.36 -32.1,13.36 -12.49,0 -23.16,-4.453 -32.01,-13.36 z m 69.35,-69.488 c -10.29,-10.34 -22.74,-15.512 -37.34,-15.512 -14.59,0 -27.02,5.172 -37.25,15.512 -10.19,10.293 -15.29,22.762 -15.29,37.406 0,14.504 5.14,26.899 15.44,37.184 10.23,10.234 22.59,15.355 37.1,15.355 14.6,0 27.05,-5.121 37.34,-15.355 10.28,-10.238 15.43,-22.629 15.43,-37.184 0,-14.597 -5.15,-27.062 -15.43,-37.406 z m -27.43,57.348 c -2.55,1.445 -6.61,2.164 -12.27,2.164 h -8.7 v -20.961 h 9.2 c 4.33,0 7.53,0.433 9.7,1.285 3.98,1.582 5.95,4.598 5.95,9.055 0,4.214 -1.3,7.027 -3.88,8.457"
         style="fill:#231f20;fill-opacity:1;fill-rule:evenodd;stroke:none"
         id="path16" /><path
         d="m 1601.75,875.465 -57.64,-11.617 c 0,0 -67.7,-10.114 -55.72,-54.375 11.97,-44.254 114.11,-9.465 113.36,65.992 z m -952.773,0 -57.641,-11.617 c 0,0 -67.688,-10.114 -55.719,-54.375 11.988,-44.254 114.106,-9.465 113.36,65.992 z M 375.555,753.504 h 70 c -50.942,58.062 -25.711,126.574 11.05,144.035 116.317,55.27 202.161,13.793 213.184,65.238 1.07,5.036 0.93,10.118 -5.902,17.563 -6.918,7.558 -23.664,14.832 -41.879,9.09 -14.84,-4.676 -29.992,-6.438 -47.965,-38.348 H 461.945 c 9.18,83.618 81.496,109.768 167.407,106.358 l 41.265,-1.63 c 79.438,-3.18 112.203,-33.29 110.363,-91.189 L 778.227,944.41 737.773,753.504 h 37.915 c 0,0 55.898,242.98 62.503,292.926 h 112.102 l 1.84,-38.61 c 0,0 3.707,-3.08 6.445,-1.85 27.688,37 69.722,58.42 112.032,55.64 54.23,-3.59 67.61,-26.35 82.76,-58.39 1.54,1.48 5.63,-1.61 7.37,0 25.43,32.64 52.99,59.15 107.51,59.74 67.37,0.71 123.24,-43.56 109.36,-109.355 l -42.28,-200.101 h 71.69 c -50.96,58.062 -25.74,126.574 11.02,144.035 116.33,55.27 202.17,13.793 213.19,65.238 1.07,5.036 0.92,10.118 -5.9,17.563 -6.92,7.558 -25.74,14.832 -41.88,9.09 -14.67,-5.203 -28.37,-6.438 -46.34,-38.348 h -113.95 c 9.2,83.618 81.73,109.768 167.64,106.358 l 41.26,-1.63 c 79.75,-3.19 112.21,-33.29 110.37,-91.189 l -2.77,-20.211 -40.01,-190.906 h 202.16 v -19.34 h -311.67 l -0.75,16.934 -4.49,4.351 c -73.36,-51.515 -147.47,-21.285 -147.47,-21.285 h -223.39 l -2.76,7.149 37.68,175.535 c 8.25,33.988 -12.02,56.047 -41.37,56.047 -14.2,0 -44.93,-8.969 -59.73,-79.954 L 1114.79,734.164 H 998.988 l -2.754,10.848 35.976,176.765 c 3.54,34.575 -11.2,47.442 -40.569,47.442 -24.391,0 -51.887,-22.227 -62.477,-70.754 0,0 -25.883,-121.754 -35.828,-164.301 H 628.711 l -0.754,16.934 -4.484,4.351 C 550.086,703.934 472.961,734.164 472.961,734.164 H 250.582 l 40.281,191.039 c 3.707,17.524 -9.879,38.918 -33.871,38.508 -41.89,-0.715 -65.898,-44.637 -70.914,-66.066 0,0 -23.941,-93.25 -38.191,-163.481 H 30.9453 L 139.063,1213.54 h 117.832 l -45.059,-206.77 5.68,-1.04 c 28.765,33.34 56.941,39.87 101.797,42.08 64.503,3.18 105.156,-48.783 94.839,-100.646 l -38.597,-193.66"
         style="fill:#ed1639;fill-opacity:1;fill-rule:evenodd;stroke:none"
         id="path18" /></g></g></svg>
